<?xml version="1.0" encoding="utf-8"?>
<!-- Generator: Adobe Illustrator 16.0.0, SVG Export Plug-In . SVG Version: 6.00 Build 0)  -->
<!DOCTYPE svg PUBLIC "-//W3C//DTD SVG 1.1//EN" "http://www.w3.org/Graphics/SVG/1.1/DTD/svg11.dtd">
<svg version="1.1" id="Calque_1" xmlns="http://www.w3.org/2000/svg" xmlns:xlink="http://www.w3.org/1999/xlink" x="0px" y="0px"
	 width="56px" height="53.667px" viewBox="0 0 56 53.667" enable-background="new 0 0 56 53.667" xml:space="preserve">
<g>
	<g>
		<path fill="#191718" d="M30.333,31.005l-0.164-16.438h-0.006c0.016-0.288-0.006-0.578-0.064-0.863
			c-0.376-1.848-2.184-3.043-4.031-2.668c-1.043,0.213-1.929,0.904-2.393,1.859l-0.001-0.001L15.855,28.77
			c-0.152-0.024-0.307-0.037-0.466-0.037c-1.609,0-2.914,1.304-2.914,2.913s1.305,2.914,2.914,2.914
			c1.609,0,2.914-1.305,2.914-2.914c0-0.839-0.355-1.595-0.923-2.126l7.797-15.831l0,0c0.226-0.508,0.685-0.877,1.229-0.987
			c0.928-0.189,1.837,0.412,2.026,1.341c0.039,0.189,0.045,0.381,0.021,0.57l0.015,0.002l0.165,16.407L30.333,31.005z M15.39,32.982
			c-0.737,0-1.335-0.598-1.335-1.336c0-0.737,0.598-1.336,1.335-1.336c0.738,0,1.335,0.599,1.335,1.336
			C16.725,32.384,16.127,32.982,15.39,32.982z"/>
		<path fill="#9D2625" d="M25.906,15.007l0.166,16.439h0.005c-0.015,0.288,0.006,0.577,0.064,0.863
			c0.376,1.846,2.185,3.043,4.031,2.667c1.044-0.213,1.929-0.904,2.393-1.859h0.001l7.818-15.875
			c0.152,0.024,0.308,0.037,0.467,0.037c1.608,0,2.913-1.305,2.913-2.913c0-1.609-1.305-2.914-2.913-2.914
			c-1.609,0-2.914,1.305-2.914,2.914c0,0.839,0.355,1.595,0.922,2.126l-7.797,15.832v-0.001c-0.227,0.508-0.686,0.877-1.229,0.987
			c-0.929,0.189-1.838-0.412-2.027-1.341c-0.038-0.188-0.045-0.381-0.02-0.57l-0.015-0.001l-0.166-16.408L25.906,15.007z
			 M40.851,13.031c0.736,0,1.335,0.599,1.335,1.336s-0.599,1.335-1.335,1.335c-0.738,0-1.336-0.598-1.336-1.335
			S40.112,13.031,40.851,13.031z"/>
	</g>
	
		<image overflow="visible" width="381" height="123" xlink:href="concurrence/mention-logo.png"  transform="matrix(0.0809 0 0 0.0809 12.5977 37.1743)">
	</image>
</g>
</svg>
